<svg aria-label="Threads" fill="#000" height="100%" role="img" viewBox="0 0 192 192" width="100%" xmlns="http://www.w3.org/2000/svg">
  <path d="M96 0C43.019 0 0 43.019 0 96s43.019 96 96 96 96-43.019 96-96S148.981 0 96 0zm0 176c-44.112 0-80-35.888-80-80S51.888 16 96 16s80 35.888 80 80-35.888 80-80 80zm0-144c-35.346 0-64 28.654-64 64s28.654 64 64 64 64-28.654 64-64-28.654-64-64-64zm0 112c-26.51 0-48-21.49-48-48s21.49-48 48-48 48 21.49 48 48-21.49 48-48 48z"></path>
  <path d="M96 32c-35.346 0-64 28.654-64 64s28.654 64 64 64 64-28.654 64-64-28.654-64-64-64zm0 112c-26.51 0-48-21.49-48-48s21.49-48 48-48 48 21.49 48 48-21.49 48-48 48z" fill="#000" opacity="0.5"></path>
</svg>